PathFileType	4	(X/Y/Z)	/Users/itak/Documents/Research/Walk-IL/dataset/trc/00273_00010.trc
DataRate	CameraRate	NumFrames	NumMarkers	Units	OrigDataRate	OrigDataStartFrame	OrigNumFrames
100.000000	100.000000	4	53	mm	100.000000	378	505
Frame#	Time	RPSI			LPSI			L3			STRN			T10			C7			CLAV			RBAK			LBAK			LSHO			LUPA			LAEL			LAOL			LWTS			LWPS			LFRA			LIFD			LHPS			LHTS			RSHO			RUPA			RAEL			RAOL			RWTS			RWPS			RFRA			RIFD			RHTS			RHPS			RBHD			LFHD			RFHD			LBHD			LHIP			RHIP			RASI			LKNE			LTHI			LANK			LTIP			LTOE			LMT1			LMT5			LHEE			RKNE			RTHI			RANK			RTIP			RTOE			RMT1			RMT5			RHEE			LASI			
		X1	Y1	Z1	X2	Y2	Z2	X3	Y3	Z3	X4	Y4	Z4	X5	Y5	Z5	X6	Y6	Z6	X7	Y7	Z7	X8	Y8	Z8	X9	Y9	Z9	X10	Y10	Z10	X11	Y11	Z11	X12	Y12	Z12	X13	Y13	Z13	X14	Y14	Z14	X15	Y15	Z15	X16	Y16	Z16	X17	Y17	Z17	X18	Y18	Z18	X19	Y19	Z19	X20	Y20	Z20	X21	Y21	Z21	X22	Y22	Z22	X23	Y23	Z23	X24	Y24	Z24	X25	Y25	Z25	X26	Y26	Z26	X27	Y27	Z27	X28	Y28	Z28	X29	Y29	Z29	X30	Y30	Z30	X31	Y31	Z31	X32	Y32	Z32	X33	Y33	Z33	X34	Y34	Z34	X35	Y35	Z35	X36	Y36	Z36	X37	Y37	Z37	X38	Y38	Z38	X39	Y39	Z39	X40	Y40	Z40	X41	Y41	Z41	X42	Y42	Z42	X43	Y43	Z43	X44	Y44	Z44	X45	Y45	Z45	X46	Y46	Z46	X47	Y47	Z47	X48	Y48	Z48	X49	Y49	Z49	X50	Y50	Z50	X51	Y51	Z51	X52	Y52	Z52	X53	Y53	Z53	

379	3.78	-1195.473022460938	999.8650512695312	118.7920227050781	-1182.275756835938	980.2329711914062	-54.14191818237305	-1160.0390625	1074.59814453125	36.7281494140625	-880.2381591796875	1210.06103515625	29.11306571960449	-1152.863525390625	1190.926635742188	44.43253707885742	-1072.499877929688	1425.199951171875	21.24003601074219	-928.8555908203125	1317.703857421875	23.55062866210938	-1136.702026367188	1299.954833984375	106.3875350952148	-1100.615112304688	1388.034790039062	-80.04351043701172	-1012.485412597656	1378.534790039062	-138.0818786621094	-1071.998779296875	1268.204223632812	-203.2183990478516	-1115.818115234375	1070.829345703125	-205.7339172363281	-1178.607055664062	1074.893432617188	-145.1541290283203	-1073.491577148438	846.549072265625	-155.1234283447266	-1106.47412109375	838.7640991210938	-219.3588256835938	-1120.606323242188	968.4385986328125	-211.9572448730469	-1091.800170898438	660.0796508789062	-153.7911071777344	-1113.10302734375	750.1810302734375	-216.6197357177734	-1062.156616210938	746.4403686523438	-174.4921569824219	-995.2455444335938	1395.431030273438	176.0208435058594	-1000.865112304688	1339.063720703125	244.6628723144531	-1022.038879394531	1078.84130859375	314.7627258300781	-1072.902709960938	1065.558715820312	234.5535736083984	-886.9501342773438	891.4561767578125	234.3432006835938	-913.6129760742188	871.1212768554688	312.5456848144531	-987.6294555664062	1017.495849609375	320.4909973144531	-820.6112060546875	719.894287109375	217.8003997802734	-820.1347045898438	791.5798950195312	238.5216064453125	-858.1824340820312	773.0232543945312	295.074462890625	-1034.333740234375	1571.23193359375	97.16990661621094	-863.9032592773438	1605.998413085938	-27.57081413269043	-862.658935546875	1598.324829101562	65.72113800048828	-1036.548461914062	1572.648071289062	-50.71440887451172	-1113.282470703125	927.27734375	-131.8797760009766	-1105.733154296875	948.80859375	232.3646240234375	-979.8875732421875	944.2852172851562	172.6883544921875	-877.5333251953125	511.3619689941406	-110.2014236450195	-945.4699096679688	637.2249145507812	-131.594970703125	-847.2732543945312	54.51969528198242	-103.791259765625	-865.7197875976562	279.0728454589844	-120.0937042236328	-649.8146362304688	97.75817108154297	-37.41298294067383	-715.430908203125	69.85374450683594	-0.8496090173721313	-727.021240234375	79.08035278320312	-111.2829437255859	-893.662353515625	39.8905029296875	-46.9527587890625	-1100.598022460938	470.7620239257812	182.0968017578125	-1055.49609375	729.617431640625	226.7712707519531	-1240.342529296875	46.63563919067383	132.1312408447266	-1111.006469726562	345.9246520996094	157.7275848388672	-1047.753662109375	52.93454742431641	68.67423248291016	-1105.451049804688	45.26110458374023	31.82084083557129	-1131.743896484375	42.68037796020508	148.6223602294922	-1296.578857421875	43.02770614624023	84.48825073242188	-971.294921875	939.5109252929688	-78.16435241699219	
380	3.79	-1200.31396484375	1000.39453125	120.9996643066406	-1187.893920898438	981.4987182617188	-52.09617614746094	-1165.626098632812	1075.645874023438	37.860595703125	-885.4904174804688	1212.256225585938	29.33332252502441	-1158.23046875	1192.585327148438	44.3475456237793	-1077.996948242188	1426.763671875	20.92544555664062	-934.4642944335938	1319.736328125	23.72514915466309	-1142.573486328125	1301.735107421875	106.0834655761719	-1105.640747070312	1389.735473632812	-80.39878845214844	-1017.329650878906	1380.469848632812	-138.0626678466797	-1076.170166015625	1270.236450195312	-203.7503204345703	-1119.547729492188	1073.067138671875	-206.3559265136719	-1182.915893554688	1076.7900390625	-146.4184722900391	-1077.523559570312	848.3382568359375	-156.5317993164062	-1110.744018554688	840.9016723632812	-220.7963714599609	-1124.534057617188	970.5164794921875	-213.1215667724609	-1096.782470703125	661.6783447265625	-156.8435974121094	-1117.675537109375	752.4317626953125	-218.7667999267578	-1066.498168945312	748.2320556640625	-176.7462615966797	-1001.314025878906	1397.33642578125	175.9267425537109	-1007.395629882812	1341.092163085938	244.5644226074219	-1030.75390625	1081.029541015625	314.2530517578125	-1080.539916992188	1068.047119140625	233.3304595947266	-896.80810546875	891.38525390625	236.1861114501953	-924.8980102539062	871.8211059570312	314.1012268066406	-996.98486328125	1019.223815917969	320.5896301269531	-832.85986328125	718.735107421875	221.6602020263672	-831.6131591796875	790.4566650390625	241.8880157470703	-870.6825561523438	772.878173828125	298.0217895507812	-1039.59326171875	1573.117919921875	96.99225616455078	-868.3619995117188	1606.8564453125	-26.97396659851074	-867.59375	1599.193359375	66.32759857177734	-1041.121215820312	1574.457275390625	-50.89038467407227	-1118.5693359375	929.3209228515625	-131.3608856201172	-1109.868530273438	949.5103149414062	234.0711975097656	-984.3764038085938	945.9605102539062	173.3931884765625	-881.4850463867188	513.769287109375	-109.7997512817383	-949.8778686523438	639.5685424804688	-130.7826843261719	-857.6580810546875	55.97472763061523	-104.1574172973633	-872.8313598632812	281.0239868164062	-120.1721115112305	-660.1784057617188	97.36885070800781	-36.8956298828125	-726.087890625	70.06830596923828	-0.6056538224220276	-737.1476440429688	79.33705902099609	-111.077880859375	-904.4530029296875	41.75886154174805	-47.55701446533203	-1103.368774414062	471.409423828125	182.2584686279297	-1059.079223632812	730.310546875	227.4741668701172	-1240.386474609375	46.65913772583008	132.1311492919922	-1113.015869140625	346.5760803222656	157.8456268310547	-1047.852905273438	53.03933715820312	68.52216339111328	-1105.574096679688	45.27193832397461	31.72487831115723	-1131.769897460938	42.81622314453125	148.5350494384766	-1296.6220703125	42.96871185302734	84.51238250732422	-976.570068359375	941.9102172851562	-77.42153930664062	
381	3.8	-1204.986083984375	1000.739196777344	123.3634033203125	-1193.376342773438	982.7135620117188	-49.94312286376953	-1171.0263671875	1076.526489257812	39.15544509887695	-890.6629638671875	1214.48681640625	29.5545539855957	-1163.418579101562	1194.205200195312	44.34252548217773	-1083.413940429688	1428.3095703125	20.58234977722168	-939.97412109375	1321.844482421875	23.87666702270508	-1148.297241210938	1303.47998046875	105.8105087280273	-1110.572509765625	1391.406127929688	-80.75977325439453	-1022.103820800781	1382.441650390625	-138.0727691650391	-1080.205200195312	1272.315063476562	-204.3306427001953	-1123.526000976562	1075.350830078125	-207.2484588623047	-1187.129150390625	1078.74462890625	-147.6041412353516	-1081.332275390625	850.1640014648438	-158.6796417236328	-1115.427368164062	843.0599365234375	-222.5167236328125	-1128.75537109375	972.6565551757812	-214.5054626464844	-1101.681762695312	663.4105834960938	-159.9824371337891	-1122.718872070312	754.6754150390625	-220.9057006835938	-1070.810791015625	750.0106201171875	-179.6999816894531	-1007.238708496094	1399.258422851562	175.7778015136719	-1013.712890625	1343.143676757812	244.4311676025391	-1039.302001953125	1083.28857421875	313.7843322753906	-1088.080078125	1070.595581054688	232.1846771240234	-906.7966918945312	891.21240234375	238.0507049560547	-936.2811889648438	872.5391235351562	315.6968383789062	-1006.242309570312	1021.004516601562	320.7225952148438	-845.97900390625	717.2630615234375	225.5283050537109	-843.5457763671875	789.08544921875	245.2304992675781	-883.5471801757812	772.6461181640625	301.00341796875	-1044.79541015625	1575.002563476562	96.73880004882812	-872.8128051757812	1607.72998046875	-26.50731086730957	-872.4839477539062	1600.090698242188	66.80767822265625	-1045.678466796875	1576.242797851562	-51.13241195678711	-1123.554443359375	931.4282836914062	-130.8594818115234	-1113.693481445312	949.8363037109375	235.8090972900391	-988.6447143554688	947.3828125	174.1022491455078	-885.3136596679688	516.1141357421875	-109.4232635498047	-954.0535278320312	641.8970336914062	-130.0435638427734	-868.6301879882812	57.47232437133789	-104.7005157470703	-880.1516723632812	283.0035095214844	-120.3531646728516	-671.2283935546875	96.77002716064453	-36.22563552856445	-737.4924926757812	70.14460754394531	-0.3177888989448547	-747.8450317382812	79.46424865722656	-110.8525085449219	-915.9437255859375	43.72432708740234	-48.41847229003906	-1106.066162109375	472.039794921875	182.2658996582031	-1062.455688476562	730.8592529296875	228.0413970947266	-1240.44189453125	46.6951789855957	132.0999755859375	-1115.01611328125	347.2255249023438	157.9522857666016	-1047.960815429688	53.14241409301758	68.35142517089844	-1105.72802734375	45.28131484985352	31.5910472869873	-1131.808837890625	42.96298980712891	148.4291229248047	-1296.666259765625	42.88839340209961	84.49742889404297	-981.5924682617188	944.4024047851562	-76.72489929199219	
382	3.81	-1209.501831054688	1000.942199707031	125.7827224731445	-1198.709716796875	983.8472290039062	-47.7723503112793	-1176.220703125	1077.231689453125	40.56404495239258	-895.7640380859375	1216.662963867188	29.79705429077148	-1168.459228515625	1195.73681640625	44.42856216430664	-1088.7412109375	1429.79736328125	20.22393417358398	-945.3735961914062	1323.9423828125	24.01753616333008	-1153.878173828125	1305.140502929688	105.5618438720703	-1115.417846679688	1392.988647460938	-81.11919403076172	-1026.812377929688	1384.365478515625	-138.1053771972656	-1084.145629882812	1274.353271484375	-204.9371185302734	-1127.743286132812	1077.564575195312	-208.4442443847656	-1191.254516601562	1080.654052734375	-148.7373809814453	-1084.94921875	851.9600830078125	-161.48876953125	-1120.429443359375	845.1412963867188	-224.5013122558594	-1133.230102539062	974.7590942382812	-216.1031799316406	-1106.368530273438	665.205322265625	-163.0788726806641	-1128.070922851562	756.8045043945312	-222.9999542236328	-1075.066650390625	751.702880859375	-183.1902465820312	-1013.030151367188	1401.140625	175.5956115722656	-1019.8466796875	1345.16455078125	244.2857513427734	-1047.645629882812	1085.55712890625	313.3961791992188	-1095.517456054688	1073.142944335938	231.1784362792969	-916.923583984375	890.9075927734375	239.9187622070312	-947.7022705078125	873.2315673828125	317.3265075683594	-1015.356811523438	1022.780395507812	320.9140930175781	-859.85791015625	715.5186767578125	229.3169860839844	-855.8709106445312	787.4872436523438	248.4814910888672	-896.6871337890625	772.314208984375	303.96533203125	-1049.942993164062	1576.838745117188	96.42203521728516	-877.269775390625	1608.598022460938	-26.16605758666992	-877.3411865234375	1600.994140625	67.16724395751953	-1050.225952148438	1577.958740234375	-51.43113708496094	-1128.246826171875	933.4760131835938	-130.3793334960938	-1117.30419921875	949.8892211914062	237.5391082763672	-992.7094116210938	948.5792236328125	174.8180084228516	-889.00341796875	518.3507690429688	-109.0933303833008	-958.0010375976562	644.1520385742188	-129.3975219726562	-880.1943969726562	59.01069641113281	-105.4225921630859	-887.653564453125	284.9797668457031	-120.6457901000977	-682.9558715820312	95.94515228271484	-35.50733947753906	-749.6300048828125	70.05786895751953	-0.0518525093793869	-759.1372680664062	79.44898986816406	-110.6678466796875	-928.1187744140625	45.79607391357422	-49.52103042602539	-1108.638793945312	472.6321411132812	182.2134552001953	-1065.60498046875	731.2940063476562	228.5005187988281	-1240.507080078125	46.74227523803711	132.0491333007812	-1116.963500976562	347.8582763671875	158.0435180664062	-1048.064575195312	53.23283004760742	68.17061614990234	-1105.901733398438	45.28699493408203	31.42998123168945	-1131.857788085938	43.11373138427734	148.3080749511719	-1296.711791992188	42.79253387451172	84.45680999755859	-986.4127807617188	946.8615112304688	-76.08077239990234	
